<svg id="Layer_1" data-name="Layer 1" xmlns="http://www.w3.org/2000/svg" viewBox="0 0 48.7 30"><defs><style>.cls-1{fill:#616366;}.cls-2{fill:#c9dd03;}.cls-3{fill:#ffd602;}.cls-4{fill:#f9a100;}.cls-5{fill:#ee7ea6;}.cls-6{fill:#a71930;}</style></defs><polygon class="cls-1" points="2.93 23.12 0.33 23.12 0 22.79 0 0.65 0.33 0.33 2.93 0.33 3.25 0.65 3.25 22.79 2.93 23.12"/><path class="cls-1" d="M7.11,11.72C7.11,4.88,11,0,17.85,0,23.06,0,26.32,2.93,27,6.84l-.32.32H24l-.33-.32c-.65-2.28-2.6-3.91-5.86-3.91-4.88,0-7.49,3.58-7.49,8.79s2.61,8.79,7.49,8.79c3.59,0,5.21-2,5.86-4.23L24,16h2.61l.32.32c-.65,3.9-3.58,7.16-9.12,7.16C11,23.44,7.11,18.56,7.11,11.72"/><path class="cls-1" d="M43.78,13v.32l4.56,7.17v2.27l-.32.33h-1.3l-.65-.33L40.2,13.67l-.65-.32h-5.2l-.33.32v9.12l-.33.33h-2.6l-.33-.33V.65l.33-.32H41.18c4.56,0,7.49,1.95,7.49,6.51A5.8,5.8,0,0,1,43.78,13m-2.6-9.77H34.35L34,3.58v6.51l.33.33h6.83c2.93,0,4.23-1,4.23-3.58s-1.3-3.58-4.23-3.58"/><polygon class="cls-2" points="2.34 26.7 2.34 29.3 2.01 29.63 0.33 29.63 0 29.3 0 26.7 0.33 26.37 2.01 26.37 2.34 26.7"/><polygon class="cls-3" points="7.99 26.7 7.99 29.3 7.67 29.63 3.64 29.63 3.32 29.3 3.32 26.7 3.64 26.37 7.67 26.37 7.99 26.7"/><polygon class="cls-4" points="15.99 26.7 15.99 29.3 15.66 29.63 9.3 29.63 8.97 29.3 8.97 26.7 9.3 26.37 15.66 26.37 15.99 26.7"/><polygon class="cls-5" points="28.66 26.7 28.66 29.3 28.33 29.63 17.29 29.63 16.96 29.3 16.96 26.7 17.29 26.37 28.33 26.37 28.66 26.7"/><polygon class="cls-6" points="48.34 26.7 48.34 29.3 48.02 29.63 29.96 29.63 29.63 29.3 29.63 26.7 29.96 26.37 48.02 26.37 48.34 26.7"/></svg>